# xmcd
#
# Track frame offsets: 
#        183
#        19480
#        39878
#        61183
#        82628
#        102723
#        121135
#        139183
#        155008
#        171345
#        186890
#
# Disc length: 2744 seconds
#
# Revision: 2
# Processed by: cddbd v1.5.2PL0 Copyright (c) Steve Scherf et al.
# Submitted via: ExactAudioCopy v1.0b3
#
DISCID=8d0ab60b
DTITLE=Dorothy Moore - Feel The Love
DYEAR=1990
DGENRE=Soul
TTITLE0=Feel the Love
TTITLE1=He Thinks I Still Care
TTITLE2=If You'll Give Me Your Heart
TTITLE3=Ain't Bothin' Changed
TTITLE4=More Than Just Another Hurt
TTITLE5=Your Body's Here with Me
TTITLE6=All Night Blue
TTITLE7=Be Strong Enough to Hold On
TTITLE8=Lover Girl
TTITLE9=Seein' You Again
TTITLE10=Talk to Me
EXTD=
EXTT0=
EXTT1=
EXTT2=
EXTT3=
EXTT4=
EXTT5=
EXTT6=
EXTT7=
EXTT8=
EXTT9=
EXTT10=
PLAYORDER=
